<svg preserveAspectRatio="none" overflow="visible" style="display: block;" width="22" height="22" viewBox="0 0 22 22" fill="none" xmlns="http://www.w3.org/2000/svg">
<g id="build">
<mask id="mask0_0_20" style="mask-type:alpha" maskUnits="userSpaceOnUse" x="0" y="0" width="22" height="22">
<rect id="Bounding box" width="22" height="22" fill="#0057B8"/>
</mask>
<g mask="url(#mask0_0_20)">
<path id="build_2" d="M15.7208 18.975L10.175 13.3833C9.86944 13.5056 9.56007 13.5972 9.24688 13.6583C8.93368 13.7194 8.60139 13.75 8.25 13.75C6.72222 13.75 5.42361 13.2153 4.35417 12.1458C3.28472 11.0764 2.75 9.77778 2.75 8.25C2.75 7.7 2.82639 7.17674 2.97917 6.68021C3.13194 6.18368 3.34583 5.71389 3.62083 5.27083L6.96667 8.61667L8.61667 6.96667L5.27083 3.62083C5.71389 3.34583 6.18368 3.13194 6.68021 2.97917C7.17674 2.82639 7.7 2.75 8.25 2.75C9.77778 2.75 11.0764 3.28472 12.1458 4.35417C13.2153 5.42361 13.75 6.72222 13.75 8.25C13.75 8.60139 13.7194 8.93368 13.6583 9.24688C13.5972 9.56007 13.5056 9.86944 13.3833 10.175L18.975 15.7208C19.1583 15.9042 19.25 16.1257 19.25 16.3854C19.25 16.6451 19.1583 16.8667 18.975 17.05L17.05 18.975C16.8667 19.1583 16.6451 19.25 16.3854 19.25C16.1257 19.25 15.9042 19.1583 15.7208 18.975ZM16.3854 17.0271L17.0042 16.4083L11.1375 10.5417C11.4125 10.2361 11.6111 9.8809 11.7333 9.47604C11.8556 9.07118 11.9167 8.6625 11.9167 8.25C11.9167 7.33333 11.6226 6.53507 11.0344 5.85521C10.4462 5.17535 9.71667 4.76667 8.84583 4.62917L10.5417 6.325C10.725 6.50833 10.8167 6.72222 10.8167 6.96667C10.8167 7.21111 10.725 7.425 10.5417 7.60833L7.60833 10.5417C7.425 10.725 7.21111 10.8167 6.96667 10.8167C6.72222 10.8167 6.50833 10.725 6.325 10.5417L4.62917 8.84583C4.76667 9.71667 5.17535 10.4462 5.85521 11.0344C6.53507 11.6226 7.33333 11.9167 8.25 11.9167C8.64722 11.9167 9.04444 11.8556 9.44167 11.7333C9.83889 11.6111 10.1979 11.4201 10.5188 11.1604L16.3854 17.0271Z" fill="#0057B8"/>
</g>
</g>
</svg>
