<svg preserveAspectRatio="none" overflow="visible" style="display: block;" width="18" height="18" viewBox="0 0 18 18" fill="none" xmlns="http://www.w3.org/2000/svg">
<g id="verified_user">
<mask id="mask0_0_161" style="mask-type:alpha" maskUnits="userSpaceOnUse" x="0" y="0" width="18" height="18">
<rect id="Bounding box" x="1.59222e-05" y="1.32685e-05" width="18" height="18" fill="#8A94A3"/>
</mask>
<g mask="url(#mask0_0_161)">
<path id="verified_user_2" d="M8.21181 9.40826L7.20419 8.41132C7.04006 8.2472 6.84563 8.16689 6.62088 8.17039C6.39613 8.17389 6.20169 8.25732 6.03756 8.4207C5.87344 8.5842 5.79138 8.77826 5.79138 9.00289C5.79138 9.22751 5.87344 9.42189 6.03756 9.58601L7.50663 11.0738C7.70863 11.2733 7.94431 11.3731 8.21369 11.3731C8.48306 11.3731 8.7175 11.2733 8.917 11.0738L11.9774 8.01345C12.1415 7.84645 12.2236 7.6482 12.2236 7.4187C12.2236 7.18907 12.1415 6.9922 11.9774 6.82807C11.8133 6.66395 11.6164 6.58189 11.3868 6.58189C11.1573 6.58189 10.959 6.66395 10.792 6.82807L8.21181 9.40826ZM8.68131 16.7401C8.57806 16.724 8.47481 16.6999 8.37156 16.6679C6.63456 16.0913 5.24488 15.0047 4.2025 13.4082C3.16013 11.8117 2.63894 10.1173 2.63894 8.32489V4.87657C2.63894 4.45807 2.75781 4.08145 2.99556 3.7467C3.23344 3.41182 3.54556 3.17051 3.93194 3.02276L8.30481 1.38814C8.52919 1.30451 8.76069 1.2627 8.99931 1.2627C9.23794 1.2627 9.46944 1.30451 9.69381 1.38814L14.0667 3.02276C14.4531 3.17051 14.7652 3.41182 15.0031 3.7467C15.2408 4.08145 15.3597 4.45807 15.3597 4.87657V8.32489C15.3597 10.1173 14.8385 11.8117 13.7961 13.4082C12.7538 15.0047 11.3641 16.0913 9.62706 16.6679C9.52381 16.6999 9.42056 16.724 9.31731 16.7401C9.21406 16.7561 9.10806 16.7641 8.99931 16.7641C8.89056 16.7641 8.78456 16.7561 8.68131 16.7401ZM8.99931 14.8083C10.2498 14.3534 11.2913 13.5284 12.1236 12.3333C12.956 11.1381 13.3722 9.80364 13.3722 8.32976V4.87657L8.99931 3.24195L4.62644 4.88164V8.32489C4.62644 9.80201 5.04263 11.1381 5.875 12.3333C6.70738 13.5284 7.74881 14.3534 8.99931 14.8083Z" fill="#8A94A3"/>
</g>
</g>
</svg>
